# xmcd CD database file
#
# Track frame offsets:
#       150
#       16837
#       29965
#       46445
#       66957
#       86367
#       102862
#       122630
#       143717
#       164657
#       181772
#       195865
#
# Disc length: 2972 seconds
#
# Revision: 10
# Processed by: cddbd v1.5.2PL0 Copyright (c) Steve Scherf et al.
# Submitted via: CDex 1.70beta2
#
DISCID=9c0b9a0c
DTITLE=Various / The Next Best Thing
DYEAR=2000
DGENRE=Soundtrack
TTITLE0=Metisse / Boom boom ba
TTITLE1=Manu Chao / Bongo Bong
TTITLE2=Christina Aguilera / Don't make me love you
TTITLE3=Madonna / American Pie
TTITLE4=Mandalay / This Life
TTITLE5=Groove Armada / If Everybody Looked The Same
TTITLE6=Moby / Why Does My Heart Feel So Bad?
TTITLE7=Olive / I'm Not in Love
TTITLE8=Beth Orton / Stars All Seem To Weep
TTITLE9=Madonna / Time Stood Still
TTITLE10=Solar Twins / Swayambhu
TTITLE11=Gabriel Yared / Forever And Always
EXTD= YEAR: 2000
EXTT0=
EXTT1=
EXTT2=
EXTT3=
EXTT4=
EXTT5=
EXTT6=
EXTT7=
EXTT8=
EXTT9=
EXTT10=
EXTT11=
PLAYORDER=
.
